<?xml version="1.0" encoding="utf-8"?>
<svg viewBox="0.074 -0.017 42.648 42.644" width="42.648" height="42.644" xmlns="http://www.w3.org/2000/svg">
  <ellipse style="fill: rgb(255, 255, 255);" cx="21.398" cy="21.305" rx="21.324" ry="21.322"/>
  <path d="M 23.311 11.334 L 19.311 11.334 L 19.311 19.334 L 11.311 19.334 L 11.311 23.334 L 19.311 23.334 L 19.311 31.334 L 23.311 31.334 L 23.311 23.334 L 31.311 23.334 L 31.311 19.334 L 23.311 19.334 L 23.311 11.334 Z M 21.311 1.334 C 10.261 1.334 1.311 10.284 1.311 21.334 C 1.311 32.384 10.261 41.334 21.311 41.334 C 32.361 41.334 41.311 32.384 41.311 21.334 C 41.311 10.284 32.361 1.334 21.311 1.334 Z M 21.311 37.334 C 12.491 37.334 5.311 30.154 5.311 21.334 C 5.311 12.514 12.491 5.334 21.311 5.334 C 30.131 5.334 37.311 12.514 37.311 21.334 C 37.311 30.154 30.131 37.334 21.311 37.334 Z"/>
</svg>