<?xml version="1.0" encoding="utf-8"?>
<svg viewBox="0 0 48 48" width="48" height="48" xmlns="http://www.w3.org/2000/svg">
  <ellipse style="fill: rgb(255, 255, 255);" cx="24.087" cy="23.971" rx="21.324" ry="21.322" transform="matrix(1, 0, 0, 0.9999999999999999, 8.881784197001252e-16, 0)"/>
  <path d="M0 0h48v48h-48z" fill="none" transform="matrix(1, 0, 0, 0.9999999999999999, 8.881784197001252e-16, 0)"/>
  <path d="M26 14h-4v8h-8v4h8v8h4v-8h8v-4h-8v-8zm-2-10c-11.05 0-20 8.95-20 20s8.95 20 20 20 20-8.95 20-20-8.95-20-20-20zm0 36c-8.82 0-16-7.18-16-16s7.18-16 16-16 16 7.18 16 16-7.18 16-16 16z" transform="matrix(1, 0, 0, 0.9999999999999999, 8.881784197001252e-16, 0)"/>
</svg>