<svg version="1.1" id="Layer_1" xmlns="http://www.w3.org/2000/svg" xmlns:xlink="http://www.w3.org/1999/xlink" x="0px" y="0px"
	 width="100%" viewBox="0 0 512 512" enable-background="new 0 0 512 512" xml:space="preserve">
<path fill="#FCFFFF" opacity="1.000000" stroke="none" 
	d="
M327.900085,463.982025 
	C314.654114,467.000824 301.863373,470.215942 288.970459,472.949036 
	C271.958252,476.555328 254.586594,475.744080 237.509720,474.693512 
	C215.580261,473.344421 194.261749,467.844421 173.845245,459.389282 
	C154.088806,451.207428 135.534286,440.831177 118.966713,427.326569 
	C98.205925,410.403961 80.541267,390.609161 67.059814,367.335907 
	C56.142590,348.489380 47.505428,328.639343 42.801182,307.302460 
	C40.713177,297.831970 38.869026,288.203949 38.167835,278.556305 
	C37.172062,264.855591 36.395741,251.014435 37.218403,237.335083 
	C38.472260,216.485779 43.179092,196.184448 50.775055,176.629303 
	C57.145054,160.230286 64.846657,144.477280 75.099419,130.185532 
	C81.548317,121.196144 88.934715,112.862846 96.119362,104.421463 
	C107.728981,90.781097 121.622803,79.657318 136.600052,70.073372 
	C160.202057,54.970425 185.700424,44.482174 213.346664,38.797626 
	C233.789871,34.594147 254.326462,34.268597 274.837860,35.242527 
	C296.019043,36.248253 316.651276,41.298496 336.433441,49.140549 
	C352.316895,55.437069 367.729340,62.816582 381.514648,73.021439 
	C390.535950,79.699646 399.126740,86.980621 407.691467,94.249496 
	C421.347443,105.839272 432.482239,119.745827 442.032013,134.730209 
	C457.083618,158.347549 467.564117,183.850220 473.228424,211.514221 
	C477.519135,232.469681 477.889069,253.527069 476.695251,274.503265 
	C475.419189,296.925049 469.630646,318.694672 460.852692,339.499573 
	C452.732697,358.744934 442.537903,376.864532 429.321960,393.044067 
	C412.378418,413.787109 392.790375,431.808685 369.248627,444.802368 
	C356.086700,452.066986 341.987000,457.632629 327.900085,463.982025 
M281.522217,227.002808 
	C292.941986,227.002808 304.361725,227.002808 315.918365,227.002808 
	C315.918365,223.150345 315.882294,219.994812 315.928772,216.840500 
	C315.973206,213.828232 314.599884,212.906570 311.758453,213.713928 
	C310.826630,213.978699 309.794067,213.956436 308.808044,213.952515 
	C298.460968,213.911362 288.094238,214.160416 277.784576,213.510284 
	C275.854309,213.388565 271.459381,216.443665 271.054199,211.326080 
	C270.706757,206.937912 270.982239,202.500443 270.982239,197.981995 
	C284.974274,197.981995 298.298035,197.900192 311.619446,198.040649 
	C314.870331,198.074905 316.294342,197.034576 315.936646,193.743378 
	C315.811340,192.590469 315.756531,191.386444 315.942810,190.250565 
	C316.785583,185.110779 314.634338,183.765259 309.598145,183.909561 
	C296.833252,184.275299 284.050903,184.031006 271.282288,184.031006 
	C271.282288,178.638687 271.282288,173.735779 271.282288,168.563828 
	C272.337646,168.563828 273.081421,168.558212 273.825073,168.564682 
	C286.710510,168.676620 299.596222,168.854752 312.480804,168.791870 
	C313.627716,168.786255 315.654327,167.307587 315.753021,166.355606 
	C316.137512,162.645370 315.909821,158.871689 315.909821,154.866913 
	C300.604370,154.866913 285.990112,154.866913 271.185547,154.866913 
	C271.185547,149.525146 271.185547,144.454697 271.185547,139.001404 
	C283.513489,139.001404 295.634094,139.002365 307.754700,139.001068 
	C316.269897,139.000153 317.460327,137.585037 315.858521,129.132126 
	C315.598572,127.760269 314.929810,126.465881 314.386475,124.959572 
	C299.964935,124.959572 285.684814,124.959572 271.305328,124.959572 
	C271.305328,119.830505 271.305328,114.965317 271.305328,109.749130 
	C285.712585,109.749130 299.786652,109.749130 314.122559,109.749130 
	C311.541107,96.936165 304.421143,87.926323 294.079895,80.963898 
	C285.070435,74.898125 275.198639,73.438972 264.661835,73.983025 
	C254.095657,74.528595 243.202835,73.229836 232.997986,75.355209 
	C212.062042,79.715584 198.439835,97.065025 198.207336,118.527672 
	C197.707382,164.681885 197.982864,210.845505 198.140610,257.004578 
	C198.161118,263.003967 198.846970,269.109741 200.108582,274.976135 
	C204.106583,293.566315 223.259476,307.952301 241.193314,307.991577 
	C250.525177,308.012024 259.866669,307.723602 269.186920,308.053162 
	C285.406891,308.626678 297.598816,301.036469 307.114899,288.967010 
	C310.712311,284.404327 312.268127,278.231995 315.157501,271.912140 
	C299.477905,271.912140 285.383484,271.912140 271.202209,271.912140 
	C271.202209,266.801910 271.202209,262.058807 271.202209,256.963318 
	C283.056183,256.963318 294.683380,257.043793 306.308899,256.939972 
	C317.235931,256.842346 315.725159,258.974731 315.957092,247.049759 
	C316.015442,244.051285 315.012207,242.888321 311.923523,242.954697 
	C304.428101,243.115829 296.926941,243.007629 289.428070,243.007782 
	C283.332153,243.007904 277.236206,243.007812 271.276215,243.007812 
	C271.276215,237.325897 271.276215,232.254837 271.276215,227.002808 
	C274.567047,227.002808 277.549774,227.002808 281.522217,227.002808 
M256.500000,330.068268 
	C243.770264,329.620056 231.022629,331.241211 218.536301,326.190338 
	C194.953217,316.650696 175.636856,292.119263 175.965256,265.548553 
	C176.162933,249.553650 176.013977,233.554260 175.992081,217.556931 
	C175.986969,213.825165 175.933685,213.879898 173.580414,213.897552 
	C166.049545,213.954071 158.468369,214.495712 151.006577,213.791245 
	C146.734512,213.387909 146.991928,215.148773 146.999817,217.951447 
	C147.044830,233.948685 146.941208,249.946671 147.047318,265.943329 
	C147.160080,282.943817 152.105209,298.561676 161.020615,312.967377 
	C174.869064,335.343994 194.804260,349.731842 219.929596,356.761047 
	C226.899994,358.711090 234.403488,358.755676 241.802979,359.692291 
	C241.802979,376.536530 241.802979,393.604156 241.802979,411.088928 
	C221.159149,411.088928 200.754623,411.088928 180.329803,411.088928 
	C180.329803,420.906128 180.329803,430.302399 180.329803,439.973175 
	C181.926178,439.973175 183.233719,439.973114 184.541245,439.973145 
	C232.533340,439.974182 280.525452,439.975342 328.517548,439.976318 
	C329.350739,439.976318 330.356567,440.272095 330.979126,439.909760 
	C332.081024,439.268524 333.767883,438.246613 333.789459,437.349762 
	C334.000183,428.604156 333.916321,419.851471 333.916321,410.857178 
	C312.604706,410.857178 291.990723,410.857178 271.191650,410.857178 
	C271.191650,393.525330 271.191650,376.455841 271.191650,360.415283 
	C280.479736,358.559937 289.402740,356.993378 298.219940,354.966431 
	C312.017212,351.794647 323.796417,344.467316 334.088226,335.172455 
	C356.099854,315.293121 366.840973,290.146118 366.934265,260.484009 
	C366.978302,246.486465 366.948212,232.488647 366.932068,218.490967 
	C366.930389,217.053650 366.794006,215.616501 366.664185,213.090866 
	C358.696228,213.090866 351.052338,213.119965 343.408844,213.078491 
	C339.634399,213.058014 337.781128,214.096649 337.871765,218.613022 
	C338.192596,234.603958 338.580231,250.635651 337.749115,266.589722 
	C337.337189,274.497681 334.963135,282.492920 332.331787,290.049988 
	C328.684662,300.524231 321.093567,308.528137 312.826813,315.591949 
	C304.746552,322.496460 295.429657,327.674225 284.715576,328.882477 
	C275.713623,329.897614 266.576996,329.718597 256.500000,330.068268 
z"/>
<path fill="#010101" opacity="1.000000" stroke="none" 
	d="
M281.027344,227.002808 
	C277.549774,227.002808 274.567047,227.002808 271.276215,227.002808 
	C271.276215,232.254837 271.276215,237.325897 271.276215,243.007812 
	C277.236206,243.007812 283.332153,243.007904 289.428070,243.007782 
	C296.926941,243.007629 304.428101,243.115829 311.923523,242.954697 
	C315.012207,242.888321 316.015442,244.051285 315.957092,247.049759 
	C315.725159,258.974731 317.235931,256.842346 306.308899,256.939972 
	C294.683380,257.043793 283.056183,256.963318 271.202209,256.963318 
	C271.202209,262.058807 271.202209,266.801910 271.202209,271.912140 
	C285.383484,271.912140 299.477905,271.912140 315.157501,271.912140 
	C312.268127,278.231995 310.712311,284.404327 307.114899,288.967010 
	C297.598816,301.036469 285.406891,308.626678 269.186920,308.053162 
	C259.866669,307.723602 250.525177,308.012024 241.193314,307.991577 
	C223.259476,307.952301 204.106583,293.566315 200.108582,274.976135 
	C198.846970,269.109741 198.161118,263.003967 198.140610,257.004578 
	C197.982864,210.845505 197.707382,164.681885 198.207336,118.527672 
	C198.439835,97.065025 212.062042,79.715584 232.997986,75.355209 
	C243.202835,73.229836 254.095657,74.528595 264.661835,73.983025 
	C275.198639,73.438972 285.070435,74.898125 294.079895,80.963898 
	C304.421143,87.926323 311.541107,96.936165 314.122559,109.749130 
	C299.786652,109.749130 285.712585,109.749130 271.305328,109.749130 
	C271.305328,114.965317 271.305328,119.830505 271.305328,124.959572 
	C285.684814,124.959572 299.964935,124.959572 314.386475,124.959572 
	C314.929810,126.465881 315.598572,127.760269 315.858521,129.132126 
	C317.460327,137.585037 316.269897,139.000153 307.754700,139.001068 
	C295.634094,139.002365 283.513489,139.001404 271.185547,139.001404 
	C271.185547,144.454697 271.185547,149.525146 271.185547,154.866913 
	C285.990112,154.866913 300.604370,154.866913 315.909821,154.866913 
	C315.909821,158.871689 316.137512,162.645370 315.753021,166.355606 
	C315.654327,167.307587 313.627716,168.786255 312.480804,168.791870 
	C299.596222,168.854752 286.710510,168.676620 273.825073,168.564682 
	C273.081421,168.558212 272.337646,168.563828 271.282288,168.563828 
	C271.282288,173.735779 271.282288,178.638687 271.282288,184.031006 
	C284.050903,184.031006 296.833252,184.275299 309.598145,183.909561 
	C314.634338,183.765259 316.785583,185.110779 315.942810,190.250565 
	C315.756531,191.386444 315.811340,192.590469 315.936646,193.743378 
	C316.294342,197.034576 314.870331,198.074905 311.619446,198.040649 
	C298.298035,197.900192 284.974274,197.981995 270.982239,197.981995 
	C270.982239,202.500443 270.706757,206.937912 271.054199,211.326080 
	C271.459381,216.443665 275.854309,213.388565 277.784576,213.510284 
	C288.094238,214.160416 298.460968,213.911362 308.808044,213.952515 
	C309.794067,213.956436 310.826630,213.978699 311.758453,213.713928 
	C314.599884,212.906570 315.973206,213.828232 315.928772,216.840500 
	C315.882294,219.994812 315.918365,223.150345 315.918365,227.002808 
	C304.361725,227.002808 292.941986,227.002808 281.027344,227.002808 
z"/>
<path fill="#020202" opacity="1.000000" stroke="none" 
	d="
M257.000000,330.068268 
	C266.576996,329.718597 275.713623,329.897614 284.715576,328.882477 
	C295.429657,327.674225 304.746552,322.496460 312.826813,315.591949 
	C321.093567,308.528137 328.684662,300.524231 332.331787,290.049988 
	C334.963135,282.492920 337.337189,274.497681 337.749115,266.589722 
	C338.580231,250.635651 338.192596,234.603958 337.871765,218.613022 
	C337.781128,214.096649 339.634399,213.058014 343.408844,213.078491 
	C351.052338,213.119965 358.696228,213.090866 366.664185,213.090866 
	C366.794006,215.616501 366.930389,217.053650 366.932068,218.490967 
	C366.948212,232.488647 366.978302,246.486465 366.934265,260.484009 
	C366.840973,290.146118 356.099854,315.293121 334.088226,335.172455 
	C323.796417,344.467316 312.017212,351.794647 298.219940,354.966431 
	C289.402740,356.993378 280.479736,358.559937 271.191650,360.415283 
	C271.191650,376.455841 271.191650,393.525330 271.191650,410.857178 
	C291.990723,410.857178 312.604706,410.857178 333.916321,410.857178 
	C333.916321,419.851471 334.000183,428.604156 333.789459,437.349762 
	C333.767883,438.246613 332.081024,439.268524 330.979126,439.909760 
	C330.356567,440.272095 329.350739,439.976318 328.517548,439.976318 
	C280.525452,439.975342 232.533340,439.974182 184.541245,439.973145 
	C183.233719,439.973114 181.926178,439.973175 180.329803,439.973175 
	C180.329803,430.302399 180.329803,420.906128 180.329803,411.088928 
	C200.754623,411.088928 221.159149,411.088928 241.802979,411.088928 
	C241.802979,393.604156 241.802979,376.536530 241.802979,359.692291 
	C234.403488,358.755676 226.899994,358.711090 219.929596,356.761047 
	C194.804260,349.731842 174.869064,335.343994 161.020615,312.967377 
	C152.105209,298.561676 147.160080,282.943817 147.047318,265.943329 
	C146.941208,249.946671 147.044830,233.948685 146.999817,217.951447 
	C146.991928,215.148773 146.734512,213.387909 151.006577,213.791245 
	C158.468369,214.495712 166.049545,213.954071 173.580414,213.897552 
	C175.933685,213.879898 175.986969,213.825165 175.992081,217.556931 
	C176.013977,233.554260 176.162933,249.553650 175.965256,265.548553 
	C175.636856,292.119263 194.953217,316.650696 218.536301,326.190338 
	C231.022629,331.241211 243.770264,329.620056 257.000000,330.068268 
z"/>
</svg>