<?xml version="1.0" encoding="utf-8"?>
<svg viewBox="2.3174 2.7435 440.412 440.8" width="440.412" height="440.8" xmlns="http://www.w3.org/2000/svg">
  <path fill="#FCFFFF" opacity="1.000000" stroke="none" d="M 293.345 431.94 C 280.099 434.959 267.308 438.174 254.415 440.907 C 237.403 444.513 220.032 443.702 202.955 442.651 C 181.025 441.302 159.707 435.802 139.29 427.347 C 119.534 419.165 100.979 408.789 84.412 395.284 C 63.651 378.362 45.986 358.567 32.505 335.294 C 21.588 316.447 12.95 296.597 8.246 275.26 C 6.158 265.79 4.314 256.162 3.613 246.514 C 2.617 232.813 1.841 218.972 2.663 205.293 C 3.917 184.444 8.624 164.142 16.22 144.587 C 22.59 128.188 30.292 112.435 40.544 98.143 C 46.993 89.154 54.38 80.821 61.564 72.379 C 73.174 58.739 87.068 47.615 102.045 38.031 C 125.647 22.928 151.145 12.44 178.792 6.755 C 199.235 2.552 219.771 2.226 240.283 3.2 C 261.464 4.206 282.096 9.256 301.878 17.098 C 317.762 23.395 333.174 30.774 346.96 40.979 C 355.981 47.657 364.572 54.938 373.136 62.207 C 386.792 73.797 397.927 87.704 407.477 102.688 C 422.529 126.305 433.009 151.808 438.673 179.472 C 442.964 200.428 443.334 221.485 442.14 242.461 C 440.864 264.883 435.076 286.652 426.298 307.457 C 418.178 326.703 407.983 344.822 394.767 361.002 C 377.823 381.745 358.235 399.767 334.694 412.76 C 321.532 420.025 307.432 425.59 293.345 431.94 M 246.967 194.961 C 258.387 194.961 269.807 194.961 281.363 194.961 C 281.363 191.108 281.327 187.953 281.374 184.798 C 281.418 181.786 280.045 180.864 277.203 181.672 C 276.272 181.937 275.239 181.914 274.253 181.91 C 263.906 181.869 253.539 182.118 243.23 181.468 C 241.299 181.346 236.904 184.401 236.499 179.284 C 236.152 174.896 236.427 170.458 236.427 165.94 C 250.419 165.94 263.743 165.858 277.064 165.998 C 280.315 166.033 281.739 164.992 281.382 161.701 C 281.256 160.548 281.201 159.344 281.388 158.208 C 282.231 153.069 280.079 151.723 275.043 151.867 C 262.278 152.233 249.496 151.989 236.727 151.989 C 236.727 146.597 236.727 141.694 236.727 136.522 C 237.783 136.522 238.526 136.516 239.27 136.523 C 252.155 136.634 265.041 136.813 277.926 136.75 C 279.073 136.744 281.099 135.265 281.198 134.313 C 281.582 130.603 281.355 126.83 281.355 122.825 C 266.049 122.825 251.435 122.825 236.631 122.825 C 236.631 117.483 236.631 112.413 236.631 106.959 C 248.958 106.959 261.079 106.96 273.2 106.959 C 281.715 106.958 282.905 105.543 281.303 97.09 C 281.044 95.718 280.375 94.424 279.831 92.917 C 265.41 92.917 251.13 92.917 236.75 92.917 C 236.75 87.788 236.75 82.923 236.75 77.707 C 251.158 77.707 265.232 77.707 279.568 77.707 C 276.986 64.894 269.866 55.884 259.525 48.922 C 250.515 42.856 240.644 41.397 230.107 41.941 C 219.541 42.486 208.648 41.188 198.443 43.313 C 177.507 47.673 163.885 65.023 163.652 86.485 C 163.152 132.64 163.428 178.803 163.586 224.962 C 163.606 230.962 164.292 237.068 165.554 242.934 C 169.552 261.524 188.704 275.91 206.638 275.949 C 215.97 275.97 225.312 275.681 234.632 276.011 C 250.852 276.584 263.044 268.994 272.56 256.925 C 276.157 252.362 277.713 246.19 280.602 239.87 C 264.923 239.87 250.828 239.87 236.647 239.87 C 236.647 234.76 236.647 230.017 236.647 224.921 C 248.501 224.921 260.128 225.002 271.754 224.898 C 282.681 224.8 281.17 226.933 281.402 215.008 C 281.46 212.009 280.457 210.846 277.368 210.913 C 269.873 211.074 262.372 210.965 254.873 210.966 C 248.777 210.966 242.681 210.966 236.721 210.966 C 236.721 205.284 236.721 200.213 236.721 194.961 C 240.012 194.961 242.995 194.961 246.967 194.961 M 221.945 298.026 C 209.215 297.578 196.468 299.199 183.981 294.148 C 160.398 284.609 141.082 260.077 141.41 233.506 C 141.608 217.511 141.459 201.512 141.437 185.515 C 141.432 181.783 141.379 181.838 139.025 181.855 C 131.495 181.912 123.913 182.454 116.452 181.749 C 112.179 181.346 112.437 183.107 112.445 185.909 C 112.49 201.907 112.386 217.904 112.492 233.901 C 112.605 250.902 117.55 266.519 126.466 280.925 C 140.314 303.302 160.249 317.69 185.375 324.719 C 192.345 326.669 199.848 326.713 207.248 327.65 C 207.248 344.494 207.248 361.562 207.248 379.047 C 186.604 379.047 166.2 379.047 145.775 379.047 C 145.775 388.864 145.775 398.26 145.775 407.931 C 147.371 407.931 148.679 407.931 149.986 407.931 C 197.978 407.932 245.97 407.933 293.963 407.934 C 294.796 407.934 295.802 408.23 296.424 407.868 C 297.526 407.226 299.213 406.204 299.234 405.308 C 299.445 396.562 299.361 387.809 299.361 378.815 C 278.05 378.815 257.436 378.815 236.637 378.815 C 236.637 361.483 236.637 344.414 236.637 328.373 C 245.925 326.518 254.848 324.951 263.665 322.924 C 277.462 319.752 289.241 312.425 299.533 303.13 C 321.545 283.251 332.286 258.104 332.379 228.442 C 332.423 214.444 332.393 200.446 332.377 186.449 C 332.375 185.011 332.239 183.574 332.109 181.049 C 324.141 181.049 316.497 181.078 308.854 181.036 C 305.079 181.016 303.226 182.054 303.317 186.571 C 303.638 202.562 304.025 218.593 303.194 234.548 C 302.782 242.456 300.408 250.451 297.777 258.008 C 294.13 268.482 286.539 276.486 278.272 283.55 C 270.192 290.454 260.875 295.632 250.161 296.84 C 241.159 297.855 232.022 297.676 221.945 298.026 Z" transform="matrix(1, 0, 0, 1, -7.105427357601002e-15, -7.105427357601002e-15)"/>
  <path fill="#010101" opacity="1.000000" stroke="none" d="M 246.472 194.961 C 242.995 194.961 240.012 194.961 236.721 194.961 C 236.721 200.213 236.721 205.284 236.721 210.966 C 242.681 210.966 248.777 210.966 254.873 210.966 C 262.372 210.965 269.873 211.074 277.368 210.913 C 280.457 210.846 281.46 212.009 281.402 215.008 C 281.17 226.933 282.681 224.8 271.754 224.898 C 260.128 225.002 248.501 224.921 236.647 224.921 C 236.647 230.017 236.647 234.76 236.647 239.87 C 250.828 239.87 264.923 239.87 280.602 239.87 C 277.713 246.19 276.157 252.362 272.56 256.925 C 263.044 268.994 250.852 276.584 234.632 276.011 C 225.312 275.681 215.97 275.97 206.638 275.949 C 188.704 275.91 169.552 261.524 165.554 242.934 C 164.292 237.068 163.606 230.962 163.586 224.962 C 163.428 178.803 163.152 132.64 163.652 86.485 C 163.885 65.023 177.507 47.673 198.443 43.313 C 208.648 41.188 219.541 42.486 230.107 41.941 C 240.644 41.397 250.515 42.856 259.525 48.922 C 269.866 55.884 276.986 64.894 279.568 77.707 C 265.232 77.707 251.158 77.707 236.75 77.707 C 236.75 82.923 236.75 87.788 236.75 92.917 C 251.13 92.917 265.41 92.917 279.831 92.917 C 280.375 94.424 281.044 95.718 281.303 97.09 C 282.905 105.543 281.715 106.958 273.2 106.959 C 261.079 106.96 248.958 106.959 236.631 106.959 C 236.631 112.413 236.631 117.483 236.631 122.825 C 251.435 122.825 266.049 122.825 281.355 122.825 C 281.355 126.83 281.582 130.603 281.198 134.313 C 281.099 135.265 279.073 136.744 277.926 136.75 C 265.041 136.813 252.155 136.634 239.27 136.523 C 238.526 136.516 237.783 136.522 236.727 136.522 C 236.727 141.694 236.727 146.597 236.727 151.989 C 249.496 151.989 262.278 152.233 275.043 151.867 C 280.079 151.723 282.231 153.069 281.388 158.208 C 281.201 159.344 281.256 160.548 281.382 161.701 C 281.739 164.992 280.315 166.033 277.064 165.998 C 263.743 165.858 250.419 165.94 236.427 165.94 C 236.427 170.458 236.152 174.896 236.499 179.284 C 236.904 184.401 241.299 181.346 243.23 181.468 C 253.539 182.118 263.906 181.869 274.253 181.91 C 275.239 181.914 276.272 181.937 277.203 181.672 C 280.045 180.864 281.418 181.786 281.374 184.798 C 281.327 187.953 281.363 191.108 281.363 194.961 C 269.807 194.961 258.387 194.961 246.472 194.961 Z" transform="matrix(1, 0, 0, 1, -7.105427357601002e-15, -7.105427357601002e-15)"/>
  <path fill="#020202" opacity="1.000000" stroke="none" d="M 222.445 298.026 C 232.022 297.676 241.159 297.855 250.161 296.84 C 260.875 295.632 270.192 290.454 278.272 283.55 C 286.539 276.486 294.13 268.482 297.777 258.008 C 300.408 250.451 302.782 242.456 303.194 234.548 C 304.025 218.593 303.638 202.562 303.317 186.571 C 303.226 182.054 305.079 181.016 308.854 181.036 C 316.497 181.078 324.141 181.049 332.109 181.049 C 332.239 183.574 332.375 185.011 332.377 186.449 C 332.393 200.446 332.423 214.444 332.379 228.442 C 332.286 258.104 321.545 283.251 299.533 303.13 C 289.241 312.425 277.462 319.752 263.665 322.924 C 254.848 324.951 245.925 326.518 236.637 328.373 C 236.637 344.414 236.637 361.483 236.637 378.815 C 257.436 378.815 278.05 378.815 299.361 378.815 C 299.361 387.809 299.445 396.562 299.234 405.308 C 299.213 406.204 297.526 407.226 296.424 407.868 C 295.802 408.23 294.796 407.934 293.963 407.934 C 245.97 407.933 197.978 407.932 149.986 407.931 C 148.679 407.931 147.371 407.931 145.775 407.931 C 145.775 398.26 145.775 388.864 145.775 379.047 C 166.2 379.047 186.604 379.047 207.248 379.047 C 207.248 361.562 207.248 344.494 207.248 327.65 C 199.848 326.713 192.345 326.669 185.375 324.719 C 160.249 317.69 140.314 303.302 126.466 280.925 C 117.55 266.519 112.605 250.902 112.492 233.901 C 112.386 217.904 112.49 201.907 112.445 185.909 C 112.437 183.107 112.179 181.346 116.452 181.749 C 123.913 182.454 131.495 181.912 139.025 181.855 C 141.379 181.838 141.432 181.783 141.437 185.515 C 141.459 201.512 141.608 217.511 141.41 233.506 C 141.082 260.077 160.398 284.609 183.981 294.148 C 196.468 299.199 209.215 297.578 222.445 298.026 Z" transform="matrix(1, 0, 0, 1, -7.105427357601002e-15, -7.105427357601002e-15)"/>
</svg>