<svg xmlns="http://www.w3.org/2000/svg" data-name="Layer 1" viewBox="0 0 24 24" id="github" width="24" height="24">
  <ellipse style="stroke: rgb(0, 0, 0); fill: rgb(255, 255, 255); paint-order: stroke; stroke-width: 0px;" cx="11.945" cy="12.2" rx="11.857" ry="11.803"></ellipse>
  <path d="M 12.001 0.305 C 2.807 0.305 -2.938 10.25 1.66 18.205 C 3.12 20.733 5.455 22.637 8.224 23.56 C 8.822 23.664 9.045 23.306 9.045 22.993 C 9.045 22.71 9.03 21.769 9.03 20.771 C 6.029 21.323 5.253 20.04 5.015 19.369 C 4.751 18.716 4.331 18.138 3.791 17.683 C 3.374 17.458 2.776 16.906 3.776 16.892 C 4.55 16.976 5.236 17.433 5.612 18.115 C 6.299 19.349 7.858 19.79 9.09 19.099 C 9.141 18.493 9.412 17.926 9.851 17.504 C 7.194 17.206 4.417 16.175 4.417 11.612 C 4.401 10.425 4.838 9.278 5.642 8.404 C 5.277 7.373 5.319 6.242 5.761 5.242 C 5.761 5.242 6.761 4.929 9.045 6.465 C 10.999 5.929 13.062 5.929 15.016 6.465 C 17.299 4.914 18.3 5.242 18.3 5.242 C 18.742 6.242 18.785 7.373 18.419 8.404 C 19.223 9.277 19.662 10.425 19.642 11.612 C 19.642 16.19 16.851 17.206 14.195 17.504 C 14.771 18.088 15.066 18.893 15.001 19.711 C 15.001 21.308 14.987 22.591 14.987 22.993 C 14.987 23.306 15.21 23.679 15.807 23.56 C 24.524 20.627 26.794 9.364 19.895 3.287 C 17.713 1.367 14.908 0.306 12.001 0.305 Z" style="stroke-width: 0px;"></path>
</svg>
