<?xml version="1.0" encoding="utf-8"?>
<svg xmlns="http://www.w3.org/2000/svg" viewBox="29.201 0.486 423.263 478.78" width="529.079px" height="598.475px">
  <g id="A" transform="matrix(1, 0, 0, 1, 29.000004473879983, 0)">
    <g/>
    <rect x="0.201" y="457.561" width="423.263" height="21.705"/>
    <rect x="16.897" y="415.818" width="390.704" height="30.055"/>
    <rect x="14.393" y="73.535" width="388.617" height="41.742"/>
    <polygon points="208.701 0.486 5.21 48.072 16.897 61.012 208.701 61.012 400.506 61.012 412.193 48.072"/>
    <path d="M 70.446 247.42 C 70.111 226.92 69.58 206.419 68.777 185.933 C 68.021 166.631 66.777 147.348 65.838 128.052 C 65.757 126.386 65.051 126.026 63.669 125.724 C 57.976 124.483 52.253 123.9 46.506 123.891 C 40.759 123.9 35.036 124.483 29.343 125.724 C 27.961 126.025 27.255 126.386 27.174 128.052 C 26.235 147.348 24.991 166.631 24.235 185.933 C 23.432 206.419 22.9 226.92 22.566 247.42 C 22.329 261.948 22.476 276.487 22.706 291.019 C 22.96 307.14 23.318 323.265 23.971 339.374 C 24.671 356.662 25.753 373.936 26.702 391.213 C 26.884 394.524 27.223 397.826 27.482 401.044 C 33.861 402.704 40.186 403.663 46.507 403.742 C 52.828 403.663 59.152 402.704 65.532 401.044 C 65.791 397.826 66.129 394.523 66.311 391.213 C 67.26 373.936 68.342 356.662 69.042 339.374 C 69.695 323.265 70.053 307.14 70.307 291.019 C 70.536 276.487 70.684 261.948 70.446 247.42 Z"/>
    <path d="M 176.257 247.42 C 175.922 226.92 175.39 206.419 174.587 185.933 C 173.83 166.631 172.586 147.348 171.648 128.052 C 171.567 126.386 170.862 126.026 169.479 125.724 C 163.787 124.483 158.063 123.9 152.317 123.891 C 146.57 123.9 140.847 124.483 135.154 125.724 C 133.772 126.025 133.066 126.386 132.985 128.052 C 132.047 147.348 130.802 166.631 130.046 185.933 C 129.243 206.419 128.711 226.92 128.377 247.42 C 128.14 261.948 128.287 276.487 128.516 291.019 C 128.771 307.14 129.128 323.265 129.781 339.374 C 130.482 356.662 131.563 373.936 132.512 391.213 C 132.694 394.524 133.033 397.826 133.291 401.044 C 139.671 402.704 145.996 403.663 152.316 403.742 C 158.637 403.663 164.961 402.704 171.341 401.044 C 171.599 397.826 171.938 394.523 172.12 391.213 C 173.068 373.936 174.15 356.662 174.85 339.374 C 175.503 323.265 175.861 307.14 176.116 291.019 C 176.347 276.487 176.494 261.948 176.257 247.42 Z"/>
    <path d="M 298.972 247.42 C 298.637 226.92 298.106 206.419 297.302 185.933 C 296.546 166.631 295.302 147.348 294.364 128.052 C 294.282 126.386 293.577 126.026 292.194 125.724 C 286.502 124.483 280.779 123.9 275.032 123.891 C 269.285 123.9 263.562 124.483 257.869 125.724 C 256.487 126.025 255.781 126.386 255.7 128.052 C 254.762 147.348 253.517 166.631 252.762 185.933 C 251.958 206.419 251.427 226.92 251.092 247.42 C 250.855 261.948 251.002 276.487 251.232 291.019 C 251.487 307.14 251.844 323.265 252.497 339.374 C 253.198 356.662 254.279 373.936 255.228 391.213 C 255.411 394.524 255.749 397.826 256.007 401.044 C 262.387 402.704 268.711 403.663 275.032 403.742 C 281.353 403.663 287.677 402.704 294.057 401.044 C 294.315 397.826 294.654 394.523 294.836 391.213 C 295.785 373.936 296.866 356.662 297.567 339.374 C 298.219 323.265 298.577 307.14 298.832 291.019 C 299.062 276.487 299.209 261.948 298.972 247.42 Z"/>
    <path d="M 402.277 247.42 C 401.942 226.92 401.411 206.419 400.608 185.933 C 399.851 166.631 398.607 147.348 397.669 128.052 C 397.587 126.386 396.882 126.026 395.499 125.724 C 389.808 124.483 384.084 123.9 378.337 123.891 C 372.591 123.9 366.867 124.483 361.175 125.724 C 359.792 126.025 359.087 126.386 359.006 128.052 C 358.067 147.348 356.822 166.631 356.067 185.933 C 355.264 206.419 354.732 226.92 354.397 247.42 C 354.16 261.948 354.307 276.487 354.537 291.019 C 354.792 307.14 355.149 323.265 355.803 339.374 C 356.503 356.662 357.585 373.936 358.533 391.213 C 358.716 394.524 359.054 397.826 359.312 401.044 C 365.693 402.704 372.017 403.663 378.337 403.742 C 384.658 403.663 390.983 402.704 397.362 401.044 C 397.621 397.826 397.959 394.523 398.141 391.213 C 399.09 373.936 400.172 356.662 400.872 339.374 C 401.525 323.265 401.882 307.14 402.137 291.019 C 402.367 276.487 402.515 261.948 402.277 247.42 Z"/>
  </g>
</svg>