<?xml version="1.0" encoding="utf-8"?>
<svg xmlns="http://www.w3.org/2000/svg" viewBox="0 0 16 16" width="16px" height="16px">
  <path fill="#03A9F4" d="M 16 3.14 C 15.398 3.402 14.762 3.577 14.11 3.658 C 14.797 3.25 15.31 2.605 15.553 1.845 C 14.91 2.226 14.207 2.495 13.473 2.639 C 11.747 0.796 8.673 1.513 7.94 3.929 C 7.847 4.238 7.799 4.559 7.799 4.882 C 7.799 5.142 7.821 5.392 7.875 5.63 C 5.236 5.5 2.777 4.253 1.114 2.199 C 0.24 3.697 0.681 5.617 2.122 6.583 C 1.603 6.569 1.094 6.43 0.64 6.179 L 0.64 6.215 C 0.642 7.776 1.739 9.122 3.268 9.438 C 2.987 9.512 2.698 9.548 2.408 9.546 C 2.2 9.55 1.991 9.531 1.787 9.49 C 2.221 10.824 3.449 11.74 4.852 11.775 C 3.691 12.683 2.259 13.175 0.785 13.174 C 0.516 13.174 0.258 13.162 0 13.129 C 1.5 14.095 3.248 14.607 5.032 14.601 C 11.068 14.601 14.368 9.601 14.368 5.267 C 14.368 5.122 14.363 4.982 14.356 4.843 C 15.003 4.38 15.56 3.803 16 3.14 Z" transform="matrix(1, 0, 0, 1, 0, -5.551115123125783e-17)"/>
</svg>